<?xml version="1.0" encoding="UTF-8"?>
<svg width="409px" height="409px" viewBox="0 0 409 409" version="1.1" xmlns="http://www.w3.org/2000/svg" xmlns:xlink="http://www.w3.org/1999/xlink">
    <!-- Generator: Sketch 52.6 (67491) - http://www.bohemiancoding.com/sketch -->
    <title>yin-yang</title>
    <desc>Created with Sketch.</desc>
    <defs>
        <linearGradient x1="50%" y1="50%" x2="101.385281%" y2="50%" id="linearGradient-1">
            <stop stop-color="#FF0F7B" offset="0%"></stop>
            <stop stop-color="#FBFFFF" stop-opacity="0" offset="100%"></stop>
        </linearGradient>
        <path d="M255.681452,306.079325 C255.681452,333.141961 233.742852,355.080561 206.680217,355.080561 C179.617581,355.080561 157.678981,333.141961 157.678981,306.079325 C157.678981,279.01669 179.617581,257.078089 206.680217,257.078089 C233.742852,257.078089 255.681452,279.01669 255.681452,306.079325 Z" id="path-2"></path>
    </defs>
    <g id="Page-1" stroke="none" stroke-width="1" fill="none" fill-rule="evenodd" opacity="0.581705729" stroke-linecap="square" stroke-linejoin="round">
        <g id="yin-yang">
            <path d="M253.056387,99.5741168 C253.056387,126.636752 231.117786,148.575353 204.055151,148.575353 C176.992515,148.575353 155.053915,126.636752 155.053915,99.5741168 C155.053915,72.5114815 176.992515,50.5728808 204.055151,50.5728808 C231.117786,50.5728808 253.056387,72.5114815 253.056387,99.5741168 Z" id="path11039" stroke="#000000" stroke-width="2.71522" fill="#000000"></path>
            <path d="M204.320303,0.678805907 C203.313507,0.678805907 202.307911,0.692158002 201.308106,0.72123122 C90.2848376,2.33352207 0.678803405,92.9159018 0.678805441,204.320306 C0.678805441,315.852169 90.490658,406.509204 201.689934,407.919381 C146.697246,406.524586 102.499553,361.467906 102.499553,306.141056 C102.499553,249.936002 148.115249,204.320306 204.320303,204.320306 C260.525357,204.320306 306.141053,158.70461 306.141053,102.499556 C306.141053,46.2945019 260.525357,0.678805907 204.320303,0.678805907 Z M204.320303,68.5593059 C223.055321,68.5593127 238.260553,83.7645379 238.260553,102.499556 C238.260553,121.234581 223.055321,136.439806 204.320303,136.439806 C185.585285,136.439806 170.380053,121.234574 170.380053,102.499556 C170.38006,83.7645447 185.585285,68.5593059 204.320303,68.5593059 Z" id="path2168" stroke="#000000" stroke-width="1.35761" fill="#FF0F7B" fill-rule="nonzero"></path>
            <g id="path14925">
                <use fill="url(#linearGradient-1)" xlink:href="#path-2"></use>
                <use stroke="#000000" stroke-width="2.71522" fill="#FF0F7B" xlink:href="#path-2"></use>
            </g>
            <path d="M204.320303,407.919381 C205.3271,407.919381 206.332695,407.906029 207.332501,407.876955 C318.355769,406.264664 407.961803,315.682285 407.961803,204.277881 C407.961803,92.7460173 318.149949,2.08898257 206.950673,0.678805907 C261.943361,2.07360085 306.141053,47.1302806 306.141053,102.457131 C306.141053,158.662185 260.525357,204.277881 204.320303,204.277881 C148.115249,204.277881 102.499553,249.893577 102.499553,306.098631 C102.499553,362.303685 148.115249,407.919381 204.320303,407.919381 Z M204.320303,340.038881 C185.585285,340.038874 170.380053,324.833649 170.380053,306.098631 C170.380053,287.363606 185.585285,272.158381 204.320303,272.158381 C223.055321,272.158381 238.260553,287.363613 238.260553,306.098631 C238.260547,324.833642 223.055321,340.038881 204.320303,340.038881 Z" id="path5191" stroke="#000000" stroke-width="1.35761" fill="#000000" fill-rule="nonzero"></path>
        </g>
    </g>
</svg>